<svg t="1568622720257" class="icon" viewBox="0 0 1024 1024" version="1.1" xmlns="http://www.w3.org/2000/svg" p-id="2686" width="200" height="200"><path d="M908.8 246.4 512 472 115.2 246.4c-22.4-12.8-20.8-44.8 1.6-56L483.2 6.4c17.6-9.6 40-9.6 57.6 0l366.4 182.4C929.6 201.6 929.6 233.6 908.8 246.4z" p-id="2687" fill="#2c2c2c"></path><path d="M432 1019.2l-336-208C75.2 800 64 779.2 64 756.8L64 337.6c0-25.6 27.2-40 48-27.2l336 208c19.2 11.2 30.4 32 30.4 54.4l0 419.2C480 1016 452.8 1032 432 1019.2z" p-id="2688" fill="#2c2c2c"></path><path d="M592 1019.2l336-208c19.2-11.2 30.4-32 30.4-54.4L958.4 337.6c0-25.6-27.2-40-48-27.2l-336 208c-19.2 11.2-30.4 32-30.4 54.4l0 419.2C544 1016 571.2 1032 592 1019.2z" p-id="2689" fill="#2c2c2c"></path></svg>
