<svg t="1568621355935" class="icon" viewBox="0 0 1096 1024" version="1.1" xmlns="http://www.w3.org/2000/svg" p-id="2302" width="200" height="200"><path d="M39.837999 1023.744C17.856 1023.744 0 1005.888 0 983.906001 0 847.412003 39.910999 787.381005 118.674998 661.330007c-20.157-28.919999-35.419999-60.140999-45.461999-92.931998-29.248999-95.377998-22.238-191.522996-7.376-244.834995 22.384-80.297998 60.396999-142.446997 116.118997-189.989997 51.376999-43.817999 118.345998-75.184999 204.704996-95.852998C533.12399 2.70202 728.189986 0.00002 987.812981 0.00002h68.867998a39.676999 39.676999 0 0 1 30.052 13.73l0.183 0.182 0.365 0.439c7.559 9.019 10.772 20.813 8.764 32.424999-34.762999 200.834996-89.024998 365.919993-161.214997 490.692991-62.185999 107.355998-138.393997 186.519996-226.504996 235.268995-69.597999 38.486999-145.842997 57.985999-226.577995 57.985999-15.117 0-30.161999-0.657-44.695-1.935-67.954999-5.843-122.946998-23.735-157.161996-37.683999-15.701-6.463-31.256999-14.24-46.265-23.187-18.842-11.21-25.086-35.711999-13.875999-54.589999 7.157-12.014 20.266-19.463 34.251999-19.463a39.917999 39.917999 0 0 1 20.339 5.587c11.648 6.937 23.662 12.926 35.674999 17.856 30.964999 12.67 94.319998 33.958999 170.964997 33.958999h0.037c67.333999 0 130.833997-16.25 188.674996-48.272999 162.382997-89.864998 276.493995-299.499994 339.299993-623.243988h-17.380999c-523.37499 0-778.105985 11.283-848.981984 265.319995-9.64 34.579999-19.025 115.679998 6.828 200.067996 4.674 15.336 10.991 30.343999 18.77 44.839999 25.997999-33.994999 54.297999-66.383999 84.385998-96.436998 67.005999-67.077999 143.249997-123.932998 220.406996-164.354996 76.645999-40.203999 148.981997-61.454999 209.122996-61.454999 21.946 0 39.838999 17.856 39.838999 39.837999 0 21.946-17.856 39.837999-39.838999 39.837999-46.629999 0-107.792998 18.586-172.242997 52.289999-69.926999 36.624999-139.451997 88.512998-201.052996 150.114997C223.254996 635.367008 79.639998 741.992006 79.639998 983.870001c0.036 22.018-17.856 39.873999-39.801999 39.873999z" fill="" p-id="2303"></path></svg>
