<svg t="1568621838124" class="icon" viewBox="0 0 1024 1024" version="1.1" xmlns="http://www.w3.org/2000/svg" p-id="2738" width="200" height="200"><path d="M149.21216 492.105143h341.211429v205.531428a21.357714 21.357714 0 0 0 42.642285 0v-205.531428h341.211429V718.994286a21.284571 21.284571 0 1 0 42.642286 0V484.571429a35.108571 35.108571 0 0 0-35.108572-35.108572H533.065874V356.352a21.357714 21.357714 0 1 0-42.642285 0v93.110857H141.678446a35.108571 35.108571 0 0 0-35.108572 35.108572V718.994286a21.357714 21.357714 0 1 0 42.715429 0v-226.742857z m85.357714 282.477714H21.358446a21.284571 21.284571 0 0 0-21.357715 21.357714v206.701715c0 11.776 9.508571 21.357714 21.357715 21.357714h213.211428c11.702857 0 21.284571-9.508571 21.284572-21.357714v-206.701715a21.357714 21.357714 0 0 0-21.284572-21.357714z m383.780572 0H405.21216a21.357714 21.357714 0 0 0-21.357714 21.357714v206.701715c0 11.776 9.508571 21.357714 21.357714 21.357714h213.211429c11.776 0 21.357714-9.508571 21.357714-21.357714v-206.701715a21.357714 21.357714 0 0 0-21.357714-21.357714z m383.853714 0h-213.211429a21.284571 21.284571 0 0 0-21.357714 21.357714v206.701715c0 11.776 9.508571 21.357714 21.357714 21.357714h213.211429c11.702857 0 21.284571-9.508571 21.284571-21.357714v-206.701715a21.357714 21.357714 0 0 0-21.284571-21.357714zM341.139017 300.251429H682.423589c11.702857 0 21.284571-9.508571 21.284571-21.357715V23.625143A21.357714 21.357714 0 0 0 682.423589 2.194286H341.139017a21.357714 21.357714 0 0 0-21.284571 21.357714v255.268571c0 11.776 9.508571 21.357714 21.284571 21.357715z" p-id="2739"></path></svg>
