<svg t="1568621773455" class="icon" viewBox="0 0 1024 1024" version="1.1" xmlns="http://www.w3.org/2000/svg" p-id="779" width="200" height="200"><path d="M361.577296 106.421505h-122.794044c-67.843709 0-133.026881 44.717498-133.026881 112.561207v122.794044c0 67.843709 65.183172 133.026881 133.026881 133.026881h122.794044c124.124313 0 112.561207-3.78615 112.561207-133.026881v-122.794044c-0.102328-67.843709-44.819826-112.561207-112.561207-112.561207m71.629859 221.745578c0 100.486459 11.256121 105.705206-85.239532 105.705206h-95.47237C199.591486 433.872289 146.687719 380.866194 146.687719 328.167083v-95.472369c0-52.699111 53.006096-85.239532 105.705206-85.239533h95.472369c52.801439 0 85.239532 32.540422 85.239533 85.239533v95.472369h0.102328zM361.577296 556.666334h-122.794044c-67.843709 0-133.026881 44.717498-133.026881 112.561207v122.794044c0 67.843709 65.183172 133.026881 133.026881 133.026881h122.794044c67.843709 0 112.561207-65.183172 112.561207-133.026881v-122.794044c-0.102328-118.905566 6.344359-112.561207-112.561207-112.561207m71.629859 221.745578c0 52.699111-32.540422 105.705206-85.239532 105.705206h-95.47237c-52.801439 0-105.705206-53.006096-105.705206-105.705206v-95.47237c0-52.699111 53.006096-85.239532 105.705206-85.239532H347.967623c92.504847 0 85.239532-7.265314 85.239532 85.239532V778.411912zM811.822125 106.421505h-122.794045c-67.843709 0-133.026881 44.717498-133.026881 112.561207v122.794044c0 124.124313 8.902568 133.026881 133.026881 133.026881h122.794045c67.843709 0 112.561207-65.183172 112.561207-133.026881v-122.794044c0-67.741381-44.819826-112.561207-112.561207-112.561207m71.629859 221.745578c0 52.699111-32.540422 105.705206-85.239533 105.705206h-95.472369c-96.495653 0-105.705206-9.209553-105.705206-105.705206v-95.472369c0-52.699111 53.006096-85.341861 105.705206-85.341861h95.472369c52.801439 0 85.239532 32.540422 85.239533 85.341861v95.472369zM811.822125 556.666334h-122.794045c-124.124313 0-133.026881-11.563106-133.026881 112.561207v122.794044c0 67.843709 65.183172 133.026881 133.026881 133.026881h122.794045c67.843709 0 112.561207-65.183172 112.561207-133.026881v-122.794044c0-67.741381-44.819826-112.561207-112.561207-112.561207m71.629859 221.745578c0 52.699111-32.540422 105.705206-85.239533 105.705206h-95.472369c-52.801439 0-105.705206-53.006096-105.705206-105.705206v-95.47237c0-96.495653 9.209553-85.239532 105.705206-85.239532h95.472369c52.801439 0 85.239532 32.540422 85.239533 85.239532V778.411912z" fill="" p-id="780"></path></svg>
